<svg fill="none" xmlns="http://www.w3.org/2000/svg" viewBox="0 0 27 38">
  <path d="M23.889 37.443a2.549 2.549 0 002.547-2.55c0-3.861-1.236-7.34-3.779-10.634-4.118-5.334-10.634-8.902-14.289-13.636-1.853-2.4-2.716-4.788-2.716-7.517a2.549 2.549 0 10-5.096 0c0 3.863 1.237 7.341 3.78 10.635 4.118 5.333 10.634 8.902 14.289 13.636 1.853 2.4 2.715 4.788 2.715 7.517a2.55 2.55 0 002.549 2.55z" fill="#7ACEFA"/>
  <path d="M22.086 5.14h-8.59a1.545 1.545 0 010-3.09h8.59a1.545 1.545 0 010 3.09z" fill="#EDA1AB"/>
  <path d="M13.496 5.14H4.907a1.545 1.545 0 010-3.09h8.59a1.545 1.545 0 010 3.09z" fill="#F6EE86"/>
  <path d="M13.496 11.425H6.812a1.545 1.545 0 010-3.09h6.684a1.545 1.545 0 010 3.09z" fill="#EDA1AB"/>
  <path d="M20.18 11.425h-6.684a1.545 1.545 0 010-3.09h6.684a1.545 1.545 0 010 3.09z" fill="#F6EE86"/>
  <path d="M13.496 35.95H4.907a1.545 1.545 0 010-3.09h8.59a1.545 1.545 0 010 3.09z" fill="#EDA1AB"/>
  <path d="M4.907 32.86a1.545 1.545 0 000 3.09h2.851c.233-1.023-.005-1.556.333-3.09H4.907z" fill="#E8899E"/>
  <path d="M22.086 35.95h-8.59a1.545 1.545 0 010-3.09h8.59a1.545 1.545 0 010 3.09z" fill="#F6EE86"/>
  <path d="M20.18 29.666h-6.684a1.545 1.545 0 010-3.09h6.684a1.545 1.545 0 010 3.09z" fill="#EDA1AB"/>
  <path d="M13.496 29.666H6.812a1.545 1.545 0 010-3.09h6.684a1.545 1.545 0 010 3.09z" fill="#F6EE86"/>
  <path d="M6.812 29.666H9.47c.731-1.125 1.656-2.154 2.61-3.09H6.811a1.545 1.545 0 000 3.09zM20.18 8.334h-2.656c-.732 1.125-1.656 2.154-2.61 3.09h5.266a1.545 1.545 0 000-3.09z" fill="#F2D98D"/>
  <path d="M22.086 5.14a1.545 1.545 0 000-3.09h-2.851c-.233 1.023.004 1.556-.333 3.09h3.184z" fill="#E8899E"/>
  <path d="M3.104 37.443a2.549 2.549 0 01-2.548-2.55c0-3.861 1.237-7.34 3.78-10.634 4.118-5.334 10.634-8.902 14.289-13.636 1.853-2.4 2.715-4.788 2.715-7.517a2.549 2.549 0 115.096 0c0 3.863-1.236 7.341-3.779 10.635-4.118 5.333-10.634 8.902-14.289 13.636-1.853 2.4-2.716 4.788-2.716 7.517 0 1.408-1.14 2.55-2.548 2.55z" fill="#A3DEFE"/>
  <path fill-rule="evenodd" clip-rule="evenodd" d="M4.037 23.737c1.367-1.734 2.972-3.28 4.64-4.737-1.498-1.308-3.29-2.988-4.782-4.92C1.275 10.687 0 7.097 0 3.107A3.109 3.109 0 013.104 0a3.11 3.11 0 012.65 1.493h15.483A3.105 3.105 0 0123.889 0a3.109 3.109 0 013.104 3.106c0 2.338-.428 4.495-1.308 6.595a.556.556 0 11-1.026-.43c.822-1.962 1.221-3.978 1.221-6.165a1.994 1.994 0 00-1.991-1.993 1.994 1.994 0 00-1.992 1.993c0 6.378-4.703 10.26-9.646 14.339-2.596 2.142-5.258 4.34-7.34 6.981a.556.556 0 11-.874-.69zm6.246-11.756c1.029 1.074 2.164 2.082 3.214 2.974 1.153-.98 2.243-1.957 3.215-2.974h-6.429zm1.36-1.113h-4.83a.99.99 0 010-1.977h4.83a2.097 2.097 0 000 1.977zm1.853 0h4.215c.52-.621.988-1.245 1.432-1.977h-5.647a.99.99 0 000 1.977zm6.248-3.09H7.249a10.614 10.614 0 01-.74-2.082h13.975c-.171.709-.417 1.4-.74 2.082zm1.037-4.505c.004-.242.007-.44.044-.667H15.35a2.097 2.097 0 010 1.977h5.34c.08-.614.086-.999.091-1.31zm-7.285-.667a.99.99 0 010 1.977H4.907a.99.99 0 010-1.977h8.59zM4.363 1.565a1.991 1.991 0 00-1.259-.452 1.994 1.994 0 00-1.991 1.993c0 6.538 3.584 10.96 8.416 15.16.66-.56 1.305-1.094 1.967-1.642.372-.307.749-.619 1.137-.942-1.28-1.092-2.672-2.35-3.861-3.7h-1.96a2.103 2.103 0 01-.728-4.074 11.57 11.57 0 01-.718-2.212h-.459a2.103 2.103 0 01-.544-4.132zM18.315 19c2.343-2.047 4.54-4.246 6.15-6.908a.557.557 0 00-.952-.576c-2.179 3.602-5.523 6.36-8.767 9.036-4.941 4.075-9.65 7.958-9.65 14.342a1.994 1.994 0 01-1.992 1.993 1.994 1.994 0 01-1.991-1.993c0-2.983.752-5.698 2.3-8.3a.557.557 0 00-.955-.569C.804 28.804 0 31.705 0 34.894A3.109 3.109 0 003.104 38a3.105 3.105 0 002.652-1.493h15.482A3.112 3.112 0 0023.888 38a3.109 3.109 0 003.105-3.106c0-3.99-1.274-7.58-3.895-10.975-1.492-1.931-3.285-3.61-4.783-4.919zm-1.605 7.019c-1.029-1.074-2.164-2.082-3.214-2.974-1.153.98-2.243 1.957-3.216 2.974h6.43zm-1.36 1.113h4.83a.99.99 0 010 1.977h-4.83a2.097 2.097 0 000-1.977zm-1.854 0H9.282a15.56 15.56 0 00-1.432 1.977h5.646a.99.99 0 000-1.977zm-6.247 3.09h12.495c.325.684.569 1.372.74 2.082H6.509c.17-.709.417-1.4.74-2.082zm-1.081 5.172h5.475a2.097 2.097 0 010-1.977h-5.34c-.08.614-.086.999-.091 1.31-.004.242-.007.44-.044.667zm7.328 0a.99.99 0 010-1.977h8.59a.99.99 0 010 1.977h-8.59zm10.69-.989c0 .971-.66 1.79-1.556 2.03 1.294 1.057 3.25.142 3.25-1.541 0-6.538-3.584-10.96-8.416-15.16a189 189 0 01-1.965 1.64c-.372.307-.75.62-1.139.944 1.28 1.092 2.672 2.35 3.861 3.7h1.96a2.103 2.103 0 01.728 4.074c.317.724.554 1.455.717 2.212h.46c1.158 0 2.1.942 2.1 2.101z" fill="#000"/>
</svg>
