<svg fill="none" xmlns="http://www.w3.org/2000/svg" viewBox="0 0 19 5">
  <path d="M4.869 2.492c0 1.07-1.089 1.94-2.434 1.94C1.091 4.432 0 3.565 0 2.494 0 1.424 1.089.555 2.434.554c1.344 0 2.435.867 2.435 1.938zm8.327-.004c0 1.07 1.09 1.938 2.435 1.937 1.345 0 2.434-.869 2.434-1.94 0-1.07-1.091-1.938-2.436-1.937-1.344 0-2.434.869-2.433 1.94z" fill="#EDA1AB"/>
  <path d="M11.418 1.612C11.418.137 10.35 0 9.031 0 7.713 0 6.645.14 6.646 1.615c0 1.474 1.07 2.67 2.387 2.669 1.318 0 2.386-1.197 2.385-2.672z" fill="#4E5660"/>
</svg>
