<svg fill="none" xmlns="http://www.w3.org/2000/svg" viewBox="0 0 32 32">
  <g clip-path="url(#YOEV6A8Npe0Aa)" fill-rule="evenodd" clip-rule="evenodd">
    <path d="M26.75 30.575H5.267c-2.906 0-5.287-2.362-5.287-5.249 0-.581.113-1.143.3-1.687.094-.319.244-.656.432-.975L11.416 4.143a5.013 5.013 0 011.143-1.406l.057-.057.018-.037c1.669-1.425 4.087-1.631 6.037-.544.806.469 1.462 1.144 2.043 2.137l10.592 18.428a5.64 5.64 0 01.693 2.606v.037c.038 1.369-.506 2.7-1.5 3.712a5.198 5.198 0 01-3.749 1.556z" fill="#FF3535"/>
    <path d="M26.75 28.363H5.268c-1.668 0-3.037-1.35-3.037-3.018 0-.338.038-.675.17-.975l.037-.094c.056-.15.093-.3.206-.469L13.347 5.305c.169-.338.394-.619.675-.825l.019-.038.037-.018c.975-.844 2.362-.938 3.45-.319.543.319.993.787 1.237 1.331l10.61 18.409c.263.487.394.993.394 1.5a3.016 3.016 0 01-3.018 3.018z" fill="#FF4141"/>
    <path d="M15.99 17.471a1.716 1.716 0 01-1.707-1.724V10.44c0-.937.75-1.724 1.706-1.724a1.72 1.72 0 011.725 1.724v5.306c0 .937-.787 1.724-1.725 1.724zm0 5.83c-1.107 0-2.025-.918-2.025-2.062 0-1.124.918-2.024 2.024-2.024 1.125 0 2.044.9 2.044 2.024a2.052 2.052 0 01-2.044 2.062z" fill="#fff"/>
  </g>
  <defs>
    <clipPath id="YOEV6A8Npe0Aa">
      <path fill="#fff" d="M0 0h32v32H0z"/>
    </clipPath>
  </defs>
</svg>
