<svg fill="none" xmlns="http://www.w3.org/2000/svg" viewBox="0 0 16 16">
  <mask id="FoQkRqSWoRCSa" style="mask-type:alpha" maskUnits="userSpaceOnUse" x="0" y="0" width="16" height="16">
    <path fill="#000" d="M0 0h16v16H0z"/>
  </mask>
  <g mask="url(#FoQkRqSWoRCSa)" fill="#280056">
    <path d="M3.693 13.014a1.53 1.53 0 01-1.06-.4c-.346-.327-.513-.82-.453-1.354l.247-2.16c.046-.406.293-.946.58-1.24L8.48 2.067C9.847.62 11.273.58 12.72 1.947s1.487 2.793.12 4.24L7.367 11.98c-.28.3-.8.58-1.207.647l-2.147.367c-.113.006-.213.02-.32.02zM10.62 1.94c-.513 0-.96.32-1.413.8l-5.474 5.8c-.133.14-.286.474-.313.667l-.247 2.16c-.026.22.027.4.147.513.12.114.3.154.52.12l2.147-.366a1.49 1.49 0 00.646-.347l5.474-5.793c.826-.88 1.126-1.694-.08-2.827-.534-.513-.994-.727-1.407-.727z"/>
    <path d="M11.56 7.3h-.047A4.573 4.573 0 017.44 3.445a.508.508 0 01.42-.573.508.508 0 01.573.42 3.581 3.581 0 003.187 3.013.5.5 0 01.447.547.516.516 0 01-.507.446zM14 15.166H2a.504.504 0 01-.5-.5c0-.274.227-.5.5-.5h12c.273 0 .5.226.5.5 0 .273-.227.5-.5.5z"/>
  </g>
</svg>
