<svg fill="none" xmlns="http://www.w3.org/2000/svg" viewBox="0 0 24 24">
  <mask id="4rMonCOSR4sja" style="mask-type:alpha" maskUnits="userSpaceOnUse" x="0" y="0" width="24" height="24">
    <path d="M24 0H0v24h24V0z" fill="#D9D9D9"/>
  </mask>
  <g mask="url(#4rMonCOSR4sja)">
    <path d="M16.913 13.712a.734.734 0 00-.538-.225.733.733 0 00-.537.225l-3.275 3.3V5.237a.726.726 0 00-.75-.75.728.728 0 00-.75.75v11.775l-3.3-3.325a.766.766 0 00-.525-.2.72.72 0 00-.525.225.687.687 0 00-.25.525c0 .2.083.384.25.55l4.475 4.475a.825.825 0 00.287.188.944.944 0 00.675 0 .823.823 0 00.288-.188l4.5-4.5a.72.72 0 00.225-.525c0-.2-.083-.375-.25-.525z" fill="#fff"/>
  </g>
</svg>
