<svg fill="none" xmlns="http://www.w3.org/2000/svg" viewBox="0 0 16 16">
  <mask id="o7bgRqcNCEhpa" style="mask-type:alpha" maskUnits="userSpaceOnUse" x="0" y="0" width="16" height="16">
    <path fill="#D9D9D9" d="M0 0h16v16H0z"/>
  </mask>
  <g mask="url(#o7bgRqcNCEhpa)">
    <path d="M8 9.767a.757.757 0 01-.225-.034.403.403 0 01-.192-.133l-3.017-3a.51.51 0 01-.133-.35c0-.133.05-.25.15-.35a.51.51 0 01.35-.133.51.51 0 01.35.133L8 8.617 10.733 5.9c.089-.1.2-.147.333-.142.134.006.25.053.35.142.1.1.15.22.15.358 0 .14-.05.253-.15.342l-3 3a.403.403 0 01-.19.133.764.764 0 01-.226.034z" fill="#8F8F8F"/>
  </g>
</svg>
