<svg fill="none" xmlns="http://www.w3.org/2000/svg" viewBox="0 0 58 62">
  <rect width="52" height="52" rx="12" fill="url(#zuMdHwEIcjvWa)"/>
  <path d="M18.868 44.643c-1.796-1.378-5.29-4.196-5.131-9.447.106-2.04.607-4.04 1.475-5.888l.148-.34c2.757-5.927 12.9-14.852 21.377-21.117.796-.59 1.575-1.154 2.338-1.691 0 0 .054-.039.08-.06 3.947-2.786 7.28-4.807 8.95-5.387 3.359-1.187 4.555.29 4.975 1.56.218.673.262 1.39.128 2.086a64.974 64.974 0 01-3.112 11.262.696.696 0 01-.05.123c-4.695 12.478-12.21 21.772-15.71 26.819-.1.137-.196.278-.283.409l-.05.07c-4.391 6.297-12.738 3.444-15.135 1.601z" fill="url(#zuMdHwEIcjvWb)"/>
  <path opacity=".15" d="M33.988 43.044l.754-3.638a83.389 83.389 0 0015.284-23.67c-4.675 12.485-12.19 21.78-15.69 26.826-.101.137-.197.279-.284.41l-.064.072zm-20.269-7.842c.106-2.04.607-4.04 1.475-5.888l.148-.34c2.757-5.927 12.9-14.851 21.377-21.117-.595.566-19.592 18.863-21.94 25.428a6.38 6.38 0 01-1.06 1.917z" fill="#43675E"/>
  <path d="M18.868 44.643c-2.377-1.83-7.738-6.175-3.674-15.329 3.308-2.788 9.027-2.625 13.732.657 4.705 3.281 6.819 8.534 5.396 12.593a9.572 9.572 0 00-.284.41c-4.363 6.388-12.763 3.52-15.17 1.67z" fill="#354E4C"/>
  <path d="M19.277 43.815c4.5 3.137 10.115 2.86 12.54-.62 2.425-3.478.743-8.842-3.757-11.98-4.5-3.136-10.115-2.859-12.54.62-2.425 3.48-.743 8.843 3.757 11.98z" fill="#1B232A"/>
  <path d="M9.819 24.772c.217-.304 9.002-12.306 17.463-6.231l-5.402 6.088-1.168 1.313s-4.15-3.517-10.893-1.17zm29.117 22.901c.796-7.096-3.553-10.368-3.553-10.368l.982-1.382 4.767-6.667c7.806 6.902-1.952 18.14-2.196 18.413v.004z" fill="#6EC5A2"/>
  <path d="M34.82 18.077a4.856 4.856 0 109.67-.9 4.856 4.856 0 00-9.67.9z" fill="#fff"/>
  <path d="M36.239 17.944a3.43 3.43 0 106.831-.635 3.43 3.43 0 00-6.831.635z" fill="#1B232A"/>
  <path d="M50.026 15.736C47.937 8.511 42.9 6.536 39.07 6.15c0 0 .054-.038.08-.059 3.947-2.786 7.28-4.807 8.95-5.388 3.359-1.186 4.555.29 4.975 1.56.218.674.262 1.392.128 2.087a64.962 64.962 0 01-3.112 11.262l-.064.124z" fill="#6EC5A2"/>
  <path d="M26.757 46.59a7.797 7.797 0 00-12.55-9.23s-6.102 6.597-7.863 23.797c0 0 7.58-1.433 19.045-13.113a7.902 7.902 0 001.368-1.455z" fill="url(#zuMdHwEIcjvWc)"/>
  <path d="M24.852 43.742a4.59 4.59 0 00.245-5.09 4.586 4.586 0 00-7.619-.368s-3.585 3.878-4.617 13.978c0 0 4.45-.84 11.183-7.703.303-.237.574-.512.808-.817z" fill="#fff"/>
  <path d="M9.819 24.771c.186-.126 5.809-3.848 12.06-.143l-1.167 1.314s-4.15-3.518-10.893-1.17z" fill="url(#zuMdHwEIcjvWd)"/>
  <path d="M38.936 47.673c.796-7.096-3.554-10.369-3.554-10.369l.983-1.381s4.604 5.148 2.575 11.745l-.004.005z" fill="url(#zuMdHwEIcjvWe)"/>
  <defs>
    <linearGradient id="zuMdHwEIcjvWa" x1="13.867" y1="18.2" x2="87.967" y2="92.3" gradientUnits="userSpaceOnUse">
      <stop stop-color="#1B232A"/>
      <stop offset="1" stop-color="#5ED5A8"/>
    </linearGradient>
    <linearGradient id="zuMdHwEIcjvWb" x1="-5184.48" y1="14897.9" x2="-8675.09" y2="18831.7" gradientUnits="userSpaceOnUse">
      <stop stop-color="#fff"/>
      <stop offset=".38" stop-color="#99D0B5"/>
      <stop offset=".99" stop-color="#5F9D84"/>
    </linearGradient>
    <linearGradient id="zuMdHwEIcjvWc" x1="25.057" y1="35.519" x2="8.91" y2="58.102" gradientUnits="userSpaceOnUse">
      <stop stop-color="#EE7671"/>
      <stop offset="1" stop-color="#1B232A" stop-opacity="0"/>
    </linearGradient>
    <linearGradient id="zuMdHwEIcjvWd" x1="-1987.96" y1="1249.71" x2="-2095.83" y2="1809.66" gradientUnits="userSpaceOnUse">
      <stop stop-color="#45695E"/>
      <stop offset=".87" stop-color="#1B232A"/>
    </linearGradient>
    <linearGradient id="zuMdHwEIcjvWe" x1="-44.449" y1="4182.31" x2="-572.26" y2="4386.4" gradientUnits="userSpaceOnUse">
      <stop stop-color="#45695E"/>
      <stop offset=".87" stop-color="#1B232A"/>
    </linearGradient>
  </defs>
</svg>
