<svg fill="none" xmlns="http://www.w3.org/2000/svg" viewBox="0 0 32 32">
  <g clip-path="url(#DhKOlM1Udlh3a)">
    <path d="M16 32c8.837 0 16-7.163 16-16S24.837 0 16 0 0 7.163 0 16s7.163 16 16 16z" fill="#FAC176"/>
    <path d="M29.794 16c0 7.425-5.875 13.517-13.294 13.786-7.42.269-13.72-5.384-14.257-12.789C1.708 9.592 7.13 3.091 14.511 2.29a13.436 13.436 0 013.537.072A13.808 13.808 0 0129.794 16z" fill="#802D40"/>
    <path d="M16.55 11.035c0 2.477-1.483 3.111-2.565 3.58a7.075 7.075 0 00-.496.221 2.93 2.93 0 00-1.507 2.808.812.812 0 00.795.729l-.105 1.098a1.905 1.905 0 01-1.77-1.623 4.013 4.013 0 012.09-3.994c.177-.088.364-.171.557-.254 1.016-.436 1.898-.816 1.898-2.565 0-1.027-.419-1.319-1.048-1.76a3.357 3.357 0 01-1.71-3.206 4.399 4.399 0 011.82-3.78 13.436 13.436 0 013.537.073l-1.937.386c-.093.022-2.317.524-2.317 3.321a2.3 2.3 0 001.236 2.3 2.888 2.888 0 011.523 2.666z" fill="#FB7B76"/>
    <path d="M24.275 17.103c0 4.965-4.965 4.965-4.965 4.965s-1.655 2.207-3.862 2.207c-1.104 0-8.276-.441-8.276-6.069 0-3.58 2.847-3.84 3.26-3.856-.215.027-1.12.27-1.605 2.2a2.416 2.416 0 00.872 2.456l.016-.017a4.435 4.435 0 014.265-1.468c.006-.678.27-1.29.916-.97a3.772 3.772 0 011.473 1.76 2.882 2.882 0 001.788-.7 2.713 2.713 0 012.256-4.37 3.745 3.745 0 013.862 3.862z" fill="#FDD7AD"/>
    <path d="M11.78 19.515a.551.551 0 01-.717.309 5.327 5.327 0 01-1.346-.833c.243-.279.517-.529.816-.745.289.223.604.408.938.552a.558.558 0 01.31.717z" fill="#F9C795"/>
    <path d="M20.413 16a.552.552 0 100-1.103.552.552 0 000 1.103z" fill="#35495E"/>
    <path d="M14.345 19.31a.551.551 0 01-.39-.162 2.607 2.607 0 01-.21-2.8 1.048 1.048 0 011.398-.29c1.293.646 1.906 2.45 1.93 2.526a.553.553 0 11-1.047.35c-.136-.402-.647-1.523-1.38-1.889a.28.28 0 00-.034-.016 1.743 1.743 0 00.12 1.34.552.552 0 01-.387.94z" fill="#F9C795"/>
  </g>
  <defs>
    <clipPath id="DhKOlM1Udlh3a">
      <path fill="#fff" d="M0 0h32v32H0z"/>
    </clipPath>
  </defs>
</svg>
