<svg fill="none" xmlns="http://www.w3.org/2000/svg" viewBox="0 0 30 30">
  <circle cx="15" cy="15" r="15" fill="#00C371"/>
  <mask id="sSfsGpCvHfsma" style="mask-type:alpha" maskUnits="userSpaceOnUse" x="5" y="5" width="20" height="20">
    <path d="M5 15c0 5.523 4.477 10 10 10s10-4.477 10-10S20.523 5 15 5 5 9.477 5 15z" fill="#D9D9D9"/>
  </mask>
  <g mask="url(#sSfsGpCvHfsma)">
    <path d="M10.45 14.746a3.134 3.134 0 004.432 0l4.665-4.665c.213-.213.486-.32.816-.32.33 0 .603.107.817.32.213.214.32.486.32.817 0 .33-.107.602-.32.816l-7.698 7.697a1.12 1.12 0 01-.816.35 1.12 1.12 0 01-.817-.35l-3.032-3.032a1.106 1.106 0 01-.32-.817c0-.33.106-.602.32-.816.214-.214.486-.32.816-.32.33 0 .603.106.817.32z" fill="#fff"/>
  </g>
</svg>
