<svg xmlns="http://www.w3.org/2000/svg" viewBox="0 0 500 372.61">
  <g data-name="Background Complete">
    <path fill="#ebe8e4" d="M0 327.45h500v.25H0zm416.78 16.09h33.12v.25h-33.12zm-124.03.13h8.69v.25h-8.69zm61.58-9.41h61.44v.25h-61.44zm-141.88 5.9h12.69v.25h-12.69zm-45.73 0h36.83v.25h-36.83zm-114.26-4.22h25.43v.25H52.46zm31.43 0h74.89v.25H83.89zm153.12-53.09H43.91c-3.15 0-5.71-2.56-5.71-5.71V5.71C38.2 2.56 40.76 0 43.91 0h193.1c3.15 0 5.71 2.56 5.71 5.71v271.43c0 3.15-2.56 5.71-5.71 5.71M43.91.25c-3.01 0-5.46 2.45-5.46 5.46v271.43c0 3.01 2.45 5.46 5.46 5.46h193.1c3.01 0 5.46-2.45 5.46-5.46V5.71c0-3.01-2.45-5.46-5.46-5.46zm409.4 282.6h-193.1c-3.15 0-5.71-2.56-5.71-5.71V5.71c0-3.15 2.56-5.71 5.71-5.71h193.1c3.15 0 5.71 2.56 5.71 5.71v271.43c0 3.15-2.56 5.71-5.71 5.71M260.21.25c-3.01 0-5.46 2.45-5.46 5.46v271.43c0 3.01 2.45 5.46 5.46 5.46h193.1c3.01 0 5.46-2.45 5.46-5.46V5.71c0-3.01-2.45-5.46-5.46-5.46z"/>
    <path fill="#e0ddd9" d="M335.44 248.59c-2.25-3.42-.65-9.29 3.34-11.91 10.78-7.1 24.77-12.43 27.45-8.36s-7.84 14.97-18.61 22.06c-3.99 2.62-9.92 1.63-12.18-1.79"/>
    <path fill="#e6e3df" d="M319.29 228.84c-16.06 0-32.12 10.06-32.12 20.93 0 29.41 13.01 63.08 32.12 63.08s32.12-33.67 32.12-63.08c0-10.88-16.06-20.93-32.12-20.93"/>
    <path fill="#e0ddd9" d="M319.29 228.84c-4.21 0-8.42.69-12.34 1.91 4.34 1.35 10.26 2.24 16.17 2.24 4.06 0 8.11-.41 11.66-1.12-4.77-1.91-10.13-3.03-15.5-3.03Z"/>
    <path fill="#e6e3df" d="M304.66 243.95c-.19-4.09-4.79-7.97-9.56-7.75-12.89.6-27.49 4.6-27.27 9.47s15.14 7.49 28.03 6.89c4.77-.22 8.99-4.52 8.8-8.61m14.6-55.54c-18.29 1.92-35.6 13.12-35.03 18.59 1.55 14.77 17.7 25.9 39.45 23.62 21.76-2.28 35.25-16.52 33.7-31.29-.57-5.46-19.83-12.83-38.12-10.92"/>
    <path fill="#f0ece9" d="M319.62 191.8c-15.34 1.61-29.87 11.01-29.39 15.6 1.3 12.4 14.85 21.74 33.11 19.82 18.26-1.91 29.58-13.86 28.28-26.26-.48-4.58-16.64-10.77-31.99-9.16Z"/>
    <path fill="#e6e3df" d="M314.11 210.29c.63 5.98-2.49 11.21-6.97 11.68s-8.62-4-9.24-9.98c-.63-5.98 2.49-11.21 6.97-11.68s8.62 4 9.24 9.98"/>
    <path fill="#f5f1ed" d="M312.68 210.43c.39 3.72-1.55 6.98-4.34 7.27s-5.36-2.49-5.75-6.21 1.55-6.98 4.34-7.27 5.36 2.49 5.75 6.21"/>
    <path fill="#e6e3df" d="M345.05 207.04c.63 5.98-2.49 11.21-6.97 11.68s-8.62-4-9.24-9.98c-.63-5.98 2.49-11.21 6.97-11.68s8.62 4 9.24 9.98"/>
    <path fill="#f5f1ed" d="M330.26 208.59c.39 3.72 2.97 6.5 5.75 6.21 2.79-.29 4.73-3.55 4.34-7.27s-2.97-6.5-5.75-6.21c-2.79.29-4.73 3.55-4.34 7.27"/>
    <g fill="#f5f1ed">
      <path d="M402.21 248.43c-1.15-3.33-5.99-5.31-9.87-3.97-10.49 3.62-21.47 10.37-20.1 14.33s14.31 2.51 24.8-1.12c3.88-1.34 6.32-5.91 5.17-9.24"/>
      <path d="M408.85 240.59c13.81 0 27.63 8.65 27.63 18.01 0 25.29-11.19 54.25-27.63 54.25s-27.63-28.96-27.63-54.25c0-9.35 13.81-18.01 27.63-18.01"/>
      <path d="M408.85 240.59c3.62 0 7.24.6 10.61 1.64-3.74 1.16-8.82 1.93-13.91 1.93-3.49 0-6.98-.36-10.03-.96 4.1-1.64 8.71-2.61 13.33-2.61m8.54 9.34c1.32-3.27 6.16-5.11 9.96-3.57 10.29 4.16 21.01 11.56 19.44 15.44-1.57 3.89-14.42 1.77-24.71-2.38-3.81-1.54-6.01-6.22-4.69-9.49"/>
      <path d="M406.15 206.17c15.76-1.26 32.17 5.48 32.55 10.19 1.02 12.74-10.88 24.69-29.63 26.2-18.75 1.5-32.41-8.41-33.43-21.14-.38-4.71 14.75-13.98 30.51-15.24Z"/>
    </g>
    <g fill="#f5f1ed">
      <path d="M93.79 253.26c1.06-3.08 5.54-4.92 9.13-3.68 9.71 3.35 19.86 9.59 18.6 13.26-1.27 3.66-13.24 2.32-22.95-1.03-3.59-1.24-5.85-5.47-4.78-8.55"/>
      <path d="M87.65 246c-12.78 0-25.56 8-25.56 16.66 0 23.4 10.36 50.19 25.56 50.19s25.56-26.79 25.56-50.19c0-8.65-12.78-16.66-25.56-16.66"/>
      <path d="M87.65 246c-3.35 0-6.7.55-9.82 1.52 3.46 1.08 8.16 1.78 12.87 1.78 3.23 0 6.45-.33 9.28-.89-3.79-1.52-8.06-2.41-12.33-2.41m-7.9 8.64c-1.22-3.02-5.7-4.73-9.22-3.31-9.52 3.84-19.44 10.69-17.98 14.29 1.45 3.59 13.34 1.64 22.86-2.2 3.52-1.42 5.56-5.76 4.34-8.78"/>
      <path d="M90.15 214.16c-14.58-1.17-29.76 5.07-30.11 9.43-.94 11.78 10.06 22.85 27.41 24.24s29.98-7.78 30.93-19.56c.35-4.36-13.64-12.93-28.23-14.1Z"/>
    </g>
    <path fill="#e0ddd9" d="M118.08 53.19c3.62-1.79 5.81-2.99 5.81-2.99l.62-5.13-4.31-2.85s-2.33.89-6.04 2.5c-8.45 3.66-24 11.04-35.11 20.01-1.22.98-2.39 1.99-3.49 3.01 1.49-.18 3.02-.42 4.55-.71 14.02-2.67 29.71-9.76 37.97-13.84"/>
    <path fill="#e6e3df" d="m126.19 46.76 11.4 19.46s-18.55 31.54-39.91 40.06c14.41-15.2 26.7-40.73 26.7-40.73l-8.65-13.94zm-1.01-1.33-4.83-22.02s-35.03-10.57-56.49-2.34c20.9 1.38 47.25 11.8 47.25 11.8l3.1 16.11 10.97-3.54Z"/>
    <path fill="#f5f1ed" d="M113.33 50.97c-2.6-5.21-.46-11.6 4.76-14.2l17.65-8.79c2.59-1.29 5.76-.23 7.05 2.36l4.76 9.54c1.29 2.59.23 5.76-2.36 7.05l-17.65 8.79c-5.21 2.6-11.6.46-14.2-4.76Z"/>
    <path fill="#ebe8e4" d="m149.275 26.958 4.78 9.596a4.106 4.106 0 0 1-1.842 5.498l-9.998 4.98c-4.073 2.03-9.035.367-11.063-3.706l-1.08-2.166c-2.028-4.072-.366-9.034 3.707-11.063l9.998-4.98a4.106 4.106 0 0 1 5.498 1.841"/>
    <path fill="#e6e3df" d="M136.89 27.21c4.62-8.75 15.57-12.13 24.32-7.5l29.63 15.66c4.35 2.3 6.02 7.73 3.73 12.08l-8.47 16.02c-2.3 4.35-7.73 6.02-12.08 3.73l-29.63-15.66c-8.75-4.62-12.13-15.57-7.5-24.32Z"/>
    <circle cx="191.16" cy="56.93" r="26.11" fill="#f5f1ed" transform="rotate(-59.43 191.163 56.932)"/>
    <path fill="#ebe8e4" d="M211.53 71.2c-6.39 9.64-17.59 13.46-25.02 8.54s-8.27-16.73-1.88-26.37 17.59-13.46 25.02-8.54 8.27 16.73 1.88 26.37"/>
    <path fill="#e6e3df" d="M189.74 66.31c6.36-1.96 14.45-8.19 17.79-13.43 1.1-1.73 3.58-2.25 5.06-.83 7.58 7.26 10.57 15.99 20.05 26.61 10.94 12.27 36.55 25.94 42.06 39.3-12.7 8.73-37.42 16.02-41.08 30.39-22.52-14.48-40.65-56.98-46.06-77.42-.52-1.97.24-4.02 2.19-4.62Zm17.71 261.14h56.36c5.83 0 7.89-7.73 2.82-10.61-15.47-8.82-36.81-19.93-46.09-19.93-18.06 0-13.1 30.54-13.1 30.54Z"/>
    <path fill="#e0ddd9" d="M201.66 324.21c26.48-4.37 31.21-21.48 31.21-21.48l-30.27 1.25z"/>
    <circle cx="209.25" cy="263.07" r="48" fill="#f5f1ed"/>
    <path fill="#ebe8e4" d="M249.01 284.24c-8.68 18.19-29.08 28.03-45.58 21.98-16.5-6.06-22.84-25.71-14.16-43.91 8.68-18.19 29.08-28.03 45.58-21.98 16.5 6.06 22.84 25.71 14.16 43.91"/>
    <path fill="#e6e3df" d="M211.08 327.45h-56.36c-5.83 0-7.89-7.73-2.82-10.61 15.47-8.82 36.81-19.93 46.09-19.93 18.06 0 13.1 30.54 13.1 30.54Z"/>
    <circle cx="260.71" cy="142.9" r="35.73" fill="#f5f1ed" transform="rotate(-36.26 260.708 142.9)"/>
    <ellipse cx="265.23" cy="154" fill="#ebe8e4" rx="28.66" ry="22.08" transform="rotate(-26.36 265.257 154.008)"/>
    <path fill="#e6e3df" d="M210.56 245.61c-1.31-14.98-15.29-24.81-21.47-26.11 1.19-20.55 29.54-53.61 39.45-61.04 3.47 5.73 23.55 2.45 29.76-4.65 6.2-7.1 26.27 1.17 21.26 13.01s-44.58 21.76-44.58 56.94c7.96 6.48 11.05 12.85 10.2 22.52-.81 7.08-21.35 12.28-34.62-.67"/>
  </g>
  <ellipse cx="255" cy="361.29" fill="#f5f1ed" data-name="&amp;lt;Path&amp;gt;" rx="193.89" ry="11.32"/>
  <g data-name="Robot Body">
    <path fill="#292438" d="M166 245.64c5.21-1.58 12.09 2.68 13.93 8.76 4.98 16.43 6.49 36.3.29 38.18s-16.13-15.65-21.11-32.08c-1.84-6.08 1.67-13.28 6.88-14.86Z"/>
    <path fill="#9338ff" d="M137.93 231.2c-21.37 0-42.73 13.38-42.73 27.85 0 39.12 17.31 83.92 42.73 83.92s42.73-44.79 42.73-83.92c0-14.47-21.37-27.85-42.73-27.85"/>
    <path d="M137.93 231.2c-5.6 0-11.2.92-16.41 2.54 5.78 1.8 13.65 2.98 21.51 2.98 5.4 0 10.79-.55 15.51-1.48-6.34-2.54-13.48-4.04-20.61-4.04" opacity=".1"/>
    <path fill="#292438" d="m104.59 249.07-9.4 9.99c0 11.01 1.37 22.47 3.9 33.25 5.71-5.91 11.65-17.34 12.68-28.53 1.09-11.93-1.94-13.24-7.18-14.71"/>
    <path fill="#9338ff" d="M112.97 245.35c-4.77-2.63-12.38-.11-15.44 5.45-8.28 15.04-13.89 34.39-8.21 37.51 5.68 3.13 19.02-11.97 27.3-27.01 3.06-5.56 1.12-13.33-3.65-15.96Z"/>
    <g fill="#fff">
      <path d="M144.42 329.44c-19.17 0-32.52-33.36-32.52-63.31 0-11 15.81-21.4 32.52-21.4s32.52 10.4 32.52 21.4c0 29.94-13.36 63.31-32.52 63.31m0-83.55c-15.83 0-31.36 10.03-31.36 20.24 0 29.4 12.88 62.15 31.36 62.15s31.36-32.75 31.36-62.15c0-10.21-15.54-20.24-31.36-20.24"/>
      <path d="m144.98 328.99-1.13-.26c7.67-32.75 5.62-77.54.15-83.01l.82-.82c6.35 6.35 7.54 52.56.15 84.09Z"/>
    </g>
    <path fill="#fff" d="M128.14 310.76c.43.65.49 1.38.13 1.61s-1-.1-1.43-.76c-.43-.65-.49-1.38-.13-1.61.36-.24 1 .1 1.43.76m2.27 3.45c.43.65.49 1.38.13 1.61s-1-.1-1.43-.76c-.43-.65-.49-1.38-.13-1.61.36-.24 1 .1 1.43.76m1.28-3.31c.43.65.49 1.38.13 1.61-.36.24-1-.1-1.43-.76-.43-.65-.49-1.38-.13-1.61.36-.24 1 .1 1.43.76m2.27 3.45c.43.65.49 1.38.13 1.61s-1-.1-1.43-.76c-.43-.65-.49-1.38-.13-1.61.36-.24 1 .1 1.43.76m-1.29 3.32c.43.65.49 1.38.13 1.61s-1-.1-1.43-.76c-.43-.65-.49-1.38-.13-1.61.36-.24 1 .1 1.43.76"/>
  </g>
  <g data-name="Robotic Arm">
    <path d="M189.82 130.59c2.78-3.88 4.38-6.36 4.38-6.36l-2.22-5.69-6.08-.56s-1.93 2.23-4.9 5.97c-6.76 8.53-18.85 24.91-25.42 40.45-.72 1.7-1.38 3.41-1.95 5.08 1.45-1.01 2.91-2.12 4.34-3.28 13.12-10.61 25.51-26.77 31.84-35.62Z"/>
    <path fill="#292438" d="m194.11 126.72 11.51 24.04s-24.96 35.33-50.95 43.27c18.47-16.49 35.46-45.36 35.46-45.36l-8.82-17.27z"/>
    <path fill="#9338ff" d="M148.26 166.05c-23.66-6.23-50.47-.44-52.34 6.63-5.03 19.11 9.82 40.56 37.96 47.97s51.63-3.95 56.66-23.06c1.86-7.07-18.63-25.31-42.29-31.54Z"/>
    <path d="M147.1 170.44c-19.85-5.23-42.35-.37-43.92 5.56-4.22 16.04 8.24 34.04 31.86 40.25 23.62 6.22 43.33-3.32 47.55-19.35 1.56-5.93-15.64-21.24-35.49-26.46" opacity=".1"/>
    <path fill="#292438" d="M131.55 190.84c-2.04 7.74-8.38 12.78-14.18 11.25-5.79-1.52-8.84-9.03-6.8-16.77s8.38-12.78 14.18-11.25c5.79 1.52 8.84 9.03 6.8 16.77"/>
    <path fill="#fff" d="M102.54 190.56c-1.3 0-2.56-.93-3.6-2.65-1.03-1.72-1.73-4.06-1.96-6.59s.03-4.95.73-6.83c.75-2 1.92-3.17 3.3-3.29s2.75.81 3.84 2.64c1.03 1.72 1.73 4.06 1.96 6.59s-.03 4.95-.73 6.83c-.75 2-1.92 3.17-3.3 3.29-.08 0-.17.01-.25.01Zm-1.28-18.4h-.15c-.98.09-1.88 1.06-2.49 2.67-.65 1.75-.89 4.02-.68 6.41.22 2.38.87 4.58 1.83 6.18.88 1.47 1.95 2.25 2.93 2.17.98-.09 1.88-1.06 2.49-2.67.65-1.75.89-4.02.68-6.41-.22-2.38-.87-4.58-1.83-6.18-.84-1.4-1.84-2.18-2.78-2.18Zm76.22 38.1c-.65 0-1.23-.17-1.71-.5-2.28-1.58-1.63-6.32 1.47-10.8 1.45-2.09 3.2-3.78 4.95-4.77 1.85-1.05 3.51-1.19 4.64-.4 1.14.79 1.58 2.38 1.25 4.49-.31 1.98-1.28 4.22-2.73 6.31-1.45 2.08-3.2 3.78-4.95 4.77-1.06.6-2.06.91-2.93.91Zm7.65-16c-.7 0-1.55.26-2.46.78-1.62.92-3.27 2.51-4.63 4.48-2.7 3.9-3.49 8.23-1.72 9.46.81.56 2.13.4 3.62-.45 1.62-.92 3.27-2.51 4.63-4.48s2.28-4.07 2.57-5.91c.27-1.69-.04-2.99-.85-3.55-.32-.22-.71-.33-1.16-.33m-55.43-3.91c-1.27 4.81-5.22 7.95-8.82 7s-5.5-5.62-4.23-10.44c1.27-4.81 5.22-7.95 8.82-7s5.5 5.62 4.23 10.44"/>
    <path fill="#292438" d="M171.58 201.38c-2.04 7.74-8.38 12.78-14.18 11.25-5.79-1.52-8.84-9.03-6.8-16.77s8.38-12.78 14.18-11.25c5.79 1.52 8.84 9.03 6.8 16.77"/>
    <ellipse cx="158.97" cy="198.06" fill="#fff" rx="9.01" ry="6.75" transform="rotate(-75.25 158.977 198.058)"/>
    <path fill="#292438" d="m182.96 117.93-26.32-4.23s-26.81 33.94-27.06 61.12c10.58-22.38 33.45-46.86 33.45-46.86l19.06 3.57.86-13.6Z"/>
    <path fill="#9338ff" d="M180.12 133.54c-4.53-5.19-3.98-13.14 1.21-17.66l17.57-15.32c2.58-2.25 6.52-1.98 8.77.6l8.28 9.5c2.25 2.58 1.98 6.52-.6 8.77l-17.57 15.32c-5.19 4.53-13.14 3.98-17.66-1.21"/>
    <path d="m214.119 95.327 8.333 9.556a4.844 4.844 0 0 1-.466 6.83l-9.949 8.675c-4.055 3.536-10.22 3.114-13.756-.94l-1.88-2.156c-3.536-4.055-3.115-10.22.94-13.756l9.949-8.676a4.844 4.844 0 0 1 6.829.467" opacity=".1"/>
    <path fill="#292438" d="M199.19 111.58c-5-10.58-.45-23.33 10.13-28.33l35.81-16.94c5.25-2.49 11.58-.22 14.07 5.03l9.16 19.36c2.49 5.25.22 11.58-5.03 14.07l-35.81 16.94c-10.58 5-23.33.45-28.33-10.13"/>
    <path fill="#fff" d="M222.42 120.52c-8.18 0-16.04-4.62-19.77-12.49a.56.56 0 0 1 .26-.74.56.56 0 0 1 .74.26c4.89 10.33 17.27 14.75 27.59 9.87l35.81-16.94a.56.56 0 0 1 .74.26c.13.28.01.61-.26.74l-35.81 16.94c-3.01 1.42-6.18 2.1-9.3 2.1" opacity=".1"/>
    <circle cx="264.47" cy="77.37" r="30.87" fill="#9338ff" transform="rotate(-76.34 264.487 77.364)"/>
    <ellipse cx="274.74" cy="78.66" opacity=".1" rx="24.76" ry="19.08" transform="rotate(-87.03 274.752 78.652)"/>
    <path fill="#fff" d="M255.25 103.45c-1.82 0-3.75-.41-5.7-1.23-4.09-1.72-7.8-5.06-10.45-9.4-5.48-9-4.62-19.55 1.92-23.54 6.54-3.98 16.31.1 21.79 9.09 5.48 9 4.62 19.55-1.92 23.54-1.68 1.02-3.6 1.54-5.65 1.54Zm-8.58-35c-1.89 0-3.69.46-5.28 1.43-6.21 3.78-6.97 13.91-1.69 22.58 2.57 4.22 6.16 7.46 10.12 9.12 3.92 1.65 7.73 1.56 10.71-.26 6.21-3.78 6.97-13.91 1.69-22.58-3.92-6.44-10.1-10.29-15.55-10.29"/>
    <path fill="#fff" d="M242.43 71.94c-.09 0-.17-.04-.24-.1a.35.35 0 0 1-.1-.24.35.35 0 0 1 .48-.32c.04.02.08.04.11.08.06.06.1.15.1.24s-.04.18-.1.24c-.03.03-.07.06-.11.07-.05.02-.09.03-.14.03m16.43 6.33a.34.34 0 0 1 .08-.48c.15-.11.36-.08.48.07.11.16.08.37-.08.48-.06.05-.13.07-.2.07a.35.35 0 0 1-.28-.14m-1.34-1.66a.335.335 0 0 1 .02-.48c.14-.13.36-.12.49.02.12.15.11.36-.03.49a.34.34 0 0 1-.23.08c-.09 0-.19-.03-.25-.11m-1.5-1.52a.35.35 0 0 1-.02-.49c.12-.14.34-.15.48-.02s.15.34.02.49c-.07.07-.16.11-.25.11-.08 0-.17-.03-.23-.09m-1.65-1.37a.335.335 0 0 1-.07-.47.34.34 0 0 1 .48-.08c.15.12.18.33.07.48-.07.09-.17.14-.27.14-.07 0-.15-.02-.21-.07m-1.78-1.16a.35.35 0 0 1-.13-.47c.09-.16.31-.22.47-.13.16.1.22.31.13.47a.35.35 0 0 1-.3.18c-.06 0-.12-.02-.17-.05m-1.91-.92a.335.335 0 0 1-.19-.45c.06-.17.26-.26.44-.19s.26.27.19.45c-.05.13-.18.22-.32.22s-.08-.01-.12-.03m-6.59-.8c-.05-.19.06-.38.25-.42.18-.05.37.06.42.24s-.06.37-.25.42-.06.01-.09.01c-.15 0-.29-.1-.33-.25m4.57.19a.344.344 0 0 1-.27-.41c.04-.18.22-.3.41-.26.18.04.3.22.26.4-.03.17-.18.28-.34.28h-.06Zm-2.43-.56c0-.19.15-.34.34-.34s.35.15.35.34-.16.34-.35.34-.34-.15-.34-.34m14.13 9.75c-.09 0-.18-.03-.25-.1-.03-.03-.05-.07-.07-.11a.3.3 0 0 1-.03-.13c0-.04.01-.09.03-.13s.04-.08.07-.11c.04-.03.07-.06.11-.08.13-.05.28-.02.38.08.03.03.06.07.07.11.02.04.03.09.03.13 0 .05 0 .09-.03.13-.01.04-.04.08-.07.11a.31.31 0 0 1-.24.1"/>
    <path fill="#292438" d="M275.77 93.88c1.33-7.76-.9-19.62-4.64-25.93-1.23-2.08-.36-4.75 1.82-5.78 10.61-4.97 27.92-5.92 44.55-3.32 19.19 3 52.58 17.53 62.35 31.55-12.43 13.32-39.11 28.04-39.66 45.57-13.5-21.63-35.09-34.93-60.71-37.31-2.4-.22-4.11-2.4-3.71-4.78"/>
    <path d="M377.7 101.37c-.38 0-.74-.19-.95-.54-8.8-14.57-41.62-31.06-59.44-35.06-16.91-3.8-33.78-3.67-44.03.33a1.104 1.104 0 1 1-.8-2.06c10.63-4.16 27.99-4.32 45.32-.43 17.99 4.04 51.44 20.49 60.85 36.08.32.52.15 1.2-.38 1.52-.18.11-.38.16-.57.16"/>
    <path fill="#fff" d="M366.32 165.74c-.26 0-.49-.18-.54-.45-3.17-16.08-26.75-42.47-44.15-53.61-14.69-9.4-30.71-15.12-41.81-14.8a.544.544 0 0 1-.57-.54c0-.31.23-.56.54-.57 11.33-.26 27.57 5.46 42.43 14.98 15.45 9.89 41.14 36.6 44.64 54.32.06.3-.14.59-.44.65-.04 0-.07.01-.11.01Z" opacity=".1"/>
    <path fill="#292438" d="M340.02 361.29h66.63c6.89 0 9.32-9.14 3.34-12.55-18.29-10.42-43.52-23.56-54.48-23.56-21.35 0-15.48 36.1-15.48 36.1Z"/>
    <path d="M333.18 357.46c31.3-5.17 36.9-25.4 36.9-25.4l-35.79 1.48z"/>
    <circle cx="342.15" cy="285.18" r="56.74" fill="#9338ff"/>
    <path d="M389.15 310.21c-10.26 21.51-34.38 33.14-53.88 25.98s-27-30.4-16.74-51.91 34.38-33.14 53.88-25.98 27 30.4 16.74 51.91" opacity=".1"/>
    <path fill="#fff" d="M306.91 320.21c-10.62 0-19.26-15.71-19.26-35.03s8.64-35.03 19.26-35.03 19.26 15.71 19.26 35.03-8.64 35.03-19.26 35.03m0-68.95c-10.01 0-18.16 15.22-18.16 33.92s8.14 33.92 18.16 33.92 18.16-15.22 18.16-33.92-8.14-33.92-18.16-33.92"/>
    <path fill="#fff" d="M306.91 255.59c-.08 0-.15-.01-.21-.04a.57.57 0 0 1-.3-.3c-.03-.07-.04-.14-.04-.21s0-.14.04-.21c.03-.06.07-.12.12-.17q.075-.09.18-.12c.13-.06.28-.06.42 0 .06.02.12.06.17.12.06.05.1.11.12.17.03.07.05.14.05.21s-.02.14-.05.21a.36.36 0 0 1-.12.18c-.05.05-.11.09-.17.12-.07.03-.14.04-.21.04m14.56 26.28a.54.54 0 0 1 .52-.57.547.547 0 0 1 .07 1.09h-.03c-.29 0-.53-.23-.55-.52Zm-.27-3.28a.55.55 0 0 1 .48-.61.55.55 0 0 1 .12 1.09c-.3.03-.04 0-.06 0-.28 0-.51-.21-.54-.49Zm-.48-3.26a.55.55 0 0 1 .45-.63c.3-.05.58.14.63.44s-.14.59-.44.64-.06 0-.09 0c-.26 0-.5-.19-.55-.46Zm-.67-3.22c-.07-.29.11-.58.4-.66.29-.07.59.11.66.4s-.11.59-.4.67-.09 0-.13 0c-.25 0-.47-.17-.53-.42Zm-.91-3.15a.55.55 0 0 1 .36-.69c.28-.1.59.06.69.35a.55.55 0 0 1-.35.69c-.06.02-.12.02-.17.02a.55.55 0 0 1-.53-.37m-1.15-3.07c-.12-.28 0-.6.29-.72.28-.12.6 0 .72.29a.54.54 0 0 1-.51.76.54.54 0 0 1-.5-.33m-1.44-2.93c-.14-.26-.05-.6.21-.75a.55.55 0 0 1 .54.96.55.55 0 0 1-.75-.21m-1.78-2.71a.545.545 0 0 1 .1-.77.545.545 0 0 1 .66.87c-.1.08-.21.11-.33.11-.16 0-.32-.07-.43-.21m-2.2-2.33a.553.553 0 0 1-.06-.78c.2-.23.54-.25.78-.06.22.2.25.55.05.78-.1.12-.26.19-.41.19a.6.6 0 0 1-.36-.13m-2.65-1.69a.547.547 0 0 1-.29-.72c.12-.28.44-.41.72-.29a.547.547 0 0 1-.22 1.05c-.07 0-.14 0-.21-.04m12.19 29.5c-.07 0-.14-.02-.21-.04a.6.6 0 0 1-.18-.12.4.4 0 0 1-.11-.18.47.47 0 0 1 0-.42c.02-.06.06-.12.11-.17.06-.05.11-.09.18-.12.13-.06.29-.06.42 0a.57.57 0 0 1 .3.29c.02.07.04.14.04.21s-.02.14-.04.21q-.045.105-.12.18c-.1.1-.24.16-.39.16"/>
    <path fill="#292438" d="M344.31 361.29h-66.63c-6.89 0-9.32-9.14-3.34-12.55 18.29-10.42 43.52-23.56 54.48-23.56 21.35 0 15.48 36.1 15.48 36.1Z"/>
    <path fill="#9338ff" d="M411.82 105.96a45 45 0 0 0-4.4-8.31l.92-.62c1.79 2.67 3.31 5.53 4.51 8.51l-1.03.41Zm-7.8-12.75a44.87 44.87 0 0 0-20.88-13.53l.32-1.06a45.9 45.9 0 0 1 21.4 13.87z"/>
    <circle cx="370.08" cy="122.75" r="42.25" fill="#9338ff" transform="rotate(-67.51 370.067 122.754)"/>
    <ellipse cx="378.12" cy="134.4" opacity=".1" rx="33.88" ry="26.11" transform="rotate(-38.83 378.091 134.406)"/>
    <path fill="#fff" d="M345.92 142.1c-1.4 0-2.79-.2-4.14-.61-4.88-1.48-8.67-5.49-10.66-11.29-1.97-5.75-1.95-12.58.07-19.24 4.18-13.79 15.73-22.55 25.76-19.51 10.02 3.04 14.78 16.73 10.6 30.53-2.02 6.66-5.79 12.35-10.62 16.04-3.53 2.69-7.33 4.08-11 4.08Zm6.92-50.3c-8.48 0-17.25 7.9-20.74 19.44-1.96 6.47-1.99 13.09-.08 18.65 1.89 5.51 5.46 9.3 10.04 10.69s9.66.21 14.29-3.32c4.67-3.56 8.33-9.09 10.29-15.55 4.03-13.29-.44-26.46-9.96-29.34-1.26-.38-2.54-.56-3.83-.56Z"/>
    <path fill="#fff" d="M355.88 95.47c-.13 0-.25-.05-.34-.14a.47.47 0 0 1-.13-.33c0-.06 0-.12.03-.18.03-.05.06-.11.1-.15s.1-.08.16-.1a.48.48 0 0 1 .51.1c.04.04.08.1.1.15q.03.09.03.18c0 .13-.04.25-.13.33-.05.05-.1.08-.15.11q-.09.03-.18.03m8.53 22.94a.465.465 0 0 1-.36-.56.471.471 0 0 1 .92.2c-.05.22-.25.37-.47.37s-.06 0-.09-.01m.52-2.93a.47.47 0 0 1-.42-.52c.03-.25.27-.44.52-.41a.472.472 0 0 1-.05.94h-.05Zm.24-2.96a.47.47 0 0 1-.47-.47c0-.27.22-.47.48-.47s.47.22.46.48c0 .25-.21.46-.47.46m-.58-3.39c-.02-.26.17-.49.42-.52.26-.02.49.17.51.43.03.26-.16.49-.42.51h-.04c-.24 0-.45-.18-.47-.42m-.44-2.88c-.06-.26.11-.51.36-.56.26-.06.5.1.56.36.06.25-.11.5-.36.56s-.07 0-.1 0a.47.47 0 0 1-.46-.37Zm-.8-2.79c-.09-.25.03-.52.27-.61.25-.09.52.04.61.28s-.04.51-.28.6-.11.03-.16.03c-.2 0-.37-.11-.44-.3m-1.22-2.62a.473.473 0 0 1 .17-.65c.23-.13.51-.05.64.18.13.22.05.51-.17.64-.07.04-.15.06-.23.06-.17 0-.33-.08-.41-.23m-1.68-2.33a.46.46 0 0 1 .03-.66c.2-.18.49-.16.67.03.17.19.15.49-.04.67-.09.08-.2.12-.31.12-.13 0-.26-.06-.35-.16m-2.15-1.86a.47.47 0 0 1-.14-.65.46.46 0 0 1 .65-.13c.21.14.27.43.13.65-.09.13-.24.21-.4.21a.5.5 0 0 1-.25-.08Zm5.47 24.66c-.13 0-.24-.04-.33-.13a.6.6 0 0 1-.11-.16.57.57 0 0 1 0-.36c.03-.05.06-.11.11-.15.04-.04.09-.08.15-.1a.47.47 0 0 1 .36.87q-.09.03-.18.03"/>
    <path fill="#292438" d="M343.7 264.54c-1.55-17.71-18.08-29.33-25.38-30.86 1.4-24.29 9.05-73.64 18.6-84.76 5.46 5.73 27.82-3.18 33.17-12.96s30.62-5.35 27.86 9.59c-2.77 14.94-22.23 41.53-25.37 93.16 9.41 7.66 13.07 15.19 12.05 26.62-.95 8.36-25.24 14.51-40.92-.8Z"/>
    <path fill="#fff" d="M339.73 245.63a.552.552 0 0 1-.29-1.02c10.77-6.59 26.99-6.81 30.75-6.5.3.02.53.29.51.6-.02.3-.3.52-.6.51-3.68-.3-19.57-.1-30.08 6.34a.5.5 0 0 1-.29.08Z" opacity=".1"/>
    <path d="M374.98 274.02c-.07 0-.15 0-.22-.02-.6-.12-.98-.71-.86-1.31 2.45-11.94-2.4-25.24-12.08-33.12-.28-.22-.43-.57-.41-.93 1.8-29.62 9.66-49.98 16.6-67.94 5.22-13.53 9.73-25.21 10.76-38.34.05-.61.57-1.07 1.19-1.02.61.05 1.06.58 1.02 1.19-1.05 13.45-5.62 25.27-10.9 38.96-6.83 17.7-14.57 37.74-16.42 66.72 10 8.42 14.98 22.37 12.41 34.91-.11.52-.57.88-1.08.88Z"/>
    <path fill="#fff" d="M188.15 136.02c-2.26 0-5.09-1.72-7.17-4.59-2.8-3.85-3.21-8.34-.91-10 1.13-.82 2.73-.85 4.5-.07 1.71.76 3.4 2.19 4.74 4.03 2.8 3.85 3.21 8.34.91 10-.58.42-1.29.63-2.06.63Zm-6-14.67c-.67 0-1.27.18-1.76.53-2.04 1.49-1.58 5.62 1.04 9.23 2.62 3.6 6.41 5.32 8.45 3.84 2.04-1.49 1.58-5.62-1.04-9.22-1.28-1.77-2.88-3.13-4.51-3.85-.78-.35-1.52-.52-2.19-.52Z"/>
  </g>
</svg>
