<svg xmlns="http://www.w3.org/2000/svg" xmlns:xlink="http://www.w3.org/1999/xlink" fill="none" viewBox="0 0 40 27">
  <path fill="#BFCCF3" d="m6.865 23.103 4.488-12.276H1.91c-1.246.067-2.295 1.855-1.77 3.578L3.3 23.63c2.224 2.18 3.362-.119 3.563-.525l.002-.003z"/>
  <path fill="url(#a)" d="M39.865 3.367c-2.835 7.948-4.422 12.436-7.258 20.383-.211.593-2.114 2.406-3.698-.69l-3.3-9.089s-.857-3.02-3.959-3.151H11.353l3.102-8.44S15.511.073 18.151.007h19.272c1.188-.131 3.102 1.318 2.442 3.36" opacity=".8"/>
  <path stroke="#fff" stroke-linecap="round" stroke-linejoin="round" stroke-width="1.584" d="m33.647 5.28-5.476 7.268-2.94-3.3-4.172 5.538M33.647 5.28l-3.034.426m3.034-.426.427 3.034"/>
  <path fill="#315BD8" d="m6.807 23.234 4.546-12.409h10.825c.265 0 2.623.528 3.35 2.772l3.507 9.703c1.455 2.244 3.572.462 3.572.462-.926 2.047-2.977 2.509-3.374 2.509H6.608C3.962 26.007 3.3 23.63 3.3 23.63s1.919 2.112 3.507-.397z"/>
  <defs>
    <linearGradient id="a" x1="40" x2="35.839" y1="0" y2="28.406" gradientUnits="userSpaceOnUse">
      <stop stop-color="#A0B4ED"/>
      <stop offset="1" stop-color="#315BD8"/>
    </linearGradient>
  </defs>
</svg>
